<?xml version="1.0" encoding="UTF-8"?>
<svg version="1.1" xmlns="http://www.w3.org/2000/svg" width="1500" height="892">
<path d="M0 0 C23.28079199 -0.07043689 46.56156612 -0.12315659 69.84244347 -0.15543652 C80.65492718 -0.17083061 91.46734425 -0.19177538 102.27978516 -0.22631836 C111.71642438 -0.25645134 121.15301529 -0.275629 130.58970129 -0.28226548 C135.57498201 -0.28613777 140.56012463 -0.29507752 145.54536057 -0.31719017 C171.18268726 -0.42647807 196.51384348 -0.23441479 221.625 5.6875 C222.72706787 5.94096191 223.82913574 6.19442383 224.96459961 6.45556641 C242.98078769 10.75059473 260.363978 16.86707097 277 25 C277.81500977 25.39525879 278.63001953 25.79051758 279.46972656 26.19775391 C306.41246035 39.40286801 329.84430186 56.84430186 351 78 C351.33 52.26 351.66 26.52 352 0 C460.9 0 569.8 0 682 0 C682 30.03 682 60.06 682 91 C668.8 91 655.6 91 642 91 C642 291.64 642 492.28 642 699 C655.2 699 668.4 699 682 699 C682 729.69 682 760.38 682 792 C640.1043657 792.02202554 598.20873683 792.04049734 556.3130984 792.05106533 C551.37238786 792.05231611 546.43167732 792.05361042 541.4909668 792.05493164 C540.01549187 792.05532511 540.01549187 792.05532511 538.51020937 792.05572652 C522.56119553 792.06008359 506.61218528 792.06797134 490.66317356 792.0771528 C474.31075951 792.08648831 457.95834735 792.09205539 441.60593075 792.09408849 C431.50712155 792.09546394 421.4083225 792.09981566 411.30951642 792.10791647 C404.39422317 792.11318266 397.47893518 792.11480459 390.56364007 792.11350138 C386.56765842 792.1128578 382.57169454 792.11387774 378.57571602 792.11920547 C374.9235362 792.12403957 371.27138625 792.12433859 367.61920511 792.12089889 C365.6594803 792.12027027 363.69975588 792.12461191 361.74003607 792.12908131 C360.59200788 792.12709026 359.44397968 792.12509921 358.26116276 792.12304783 C357.26211857 792.12342755 356.26307438 792.12380727 355.23375612 792.1241985 C353 792 353 792 352 791 C351.90477582 788.13908182 351.87446674 785.30236379 351.88647461 782.44116211 C351.88632858 781.54368759 351.88618256 780.64621307 351.8860321 779.72154236 C351.88673158 776.74011866 351.89452559 773.7587566 351.90234375 770.77734375 C351.90420781 768.71611058 351.90563177 766.65487696 351.90663147 764.59364319 C351.91045763 759.1569599 351.92028874 753.72030314 351.93133545 748.28363037 C351.94334157 741.76668598 351.94795134 735.24973273 351.95378876 728.73278046 C351.96350045 718.82183516 351.98265632 708.91094813 352 699 C365.86 699 379.72 699 394 699 C393.67 622.11 393.34 545.22 393 466 C389.7 471.28 386.4 476.56 383 482 C377.16057158 489.85799627 377.16057158 489.85799627 374.47412109 493.17773438 C373.33740364 494.58291143 372.21234326 495.99752382 371.09228516 497.41601562 C365.2989508 504.65995216 359.06268862 511.33811692 352.5 517.875 C351.97565369 518.39880249 351.45130737 518.92260498 350.91107178 519.46228027 C342.1740289 528.15794047 333.17205885 536.00353757 323 543 C322.28183105 543.5038623 321.56366211 544.00772461 320.82373047 544.52685547 C309.97081929 552.12033497 298.75493779 558.89789762 287 565 C286.32710937 565.3501416 285.65421875 565.7002832 284.9609375 566.06103516 C261.95313759 577.85253261 236.56229802 585.84148151 211.125 590.25 C210.26640381 590.40122314 209.40780762 590.55244629 208.52319336 590.70825195 C184.96823731 594.47627897 161.2382078 594.28916412 137.46381497 594.23571944 C132.65442127 594.2268117 127.84502955 594.22869863 123.03562927 594.2290802 C114.99159082 594.228151 106.94759069 594.2195577 98.90356445 594.20581055 C89.59976012 594.18996949 80.29599724 594.18481705 70.99218041 594.1855461 C61.05245911 594.18621973 51.11275378 594.17930355 41.17303729 594.1700995 C38.31410903 594.16796704 35.45518333 594.16725825 32.59625435 594.16686058 C28.12679324 594.16586048 23.65736724 594.15979156 19.18791771 594.14969444 C17.5451237 594.14676249 15.90232564 594.14554547 14.25952911 594.14612198 C12.02780427 594.14660909 9.79617937 594.14099335 7.56446838 594.13371277 C6.31342599 594.13203692 5.06238359 594.13036108 3.77343082 594.12863445 C1 594 1 594 0 593 C-0.09771507 590.52108029 -0.12995957 588.07005223 -0.12025452 585.59068298 C-0.12110894 584.80578651 -0.12196337 584.02089003 -0.12284368 583.21220881 C-0.12450087 580.56194141 -0.11897324 577.91173625 -0.11352539 575.26147461 C-0.11324354 573.36972556 -0.1134012 571.4779764 -0.1139679 569.58622742 C-0.11425597 564.4335489 -0.10835765 559.28089345 -0.10139394 554.12822032 C-0.09516204 548.74967104 -0.09455673 543.3711213 -0.09336853 537.99256897 C-0.09025473 527.79988176 -0.08204069 517.60720521 -0.07201904 507.41452271 C-0.06085941 495.81375432 -0.05534783 484.21298543 -0.05032361 472.61221302 C-0.03985811 448.74146942 -0.02225773 424.87073531 0 401 C1.04193418 400.99641747 1.04193418 400.99641747 2.10491753 400.99276257 C19.08547463 400.93336638 36.06587527 400.85766167 53.046278 400.76428509 C61.25821516 400.71951145 69.47011073 400.68005551 77.68212891 400.65356445 C84.84811904 400.63043379 92.0139755 400.59687116 99.17985928 400.55129844 C102.96653284 400.52756702 106.75307567 400.50870797 110.53982162 400.50238609 C134.64408627 400.45674688 157.84872971 400.0957865 179 387 C183.86206897 384 183.86206897 384 186 384 C186 383.34 186 382.68 186 382 C187.50390625 380.9921875 187.50390625 380.9921875 189.5625 379.875 C193.66872168 377.42874027 196.44399053 374.54581679 199.45703125 370.8671875 C201 369 201 369 202.57421875 367.4453125 C204.23432431 365.85374142 204.23432431 365.85374142 206 363 C206.66 363 207.32 363 208 363 C208.33 361.68 208.66 360.36 209 359 C209.66 359 210.32 359 211 359 C211.12979248 358.41081787 211.25958496 357.82163574 211.39331055 357.21459961 C212.34024272 353.7580114 214.15145391 350.71938665 215.8125 347.5625 C222.92272639 333.67242457 226.40552589 319.35841568 226.3125 303.75 C226.30404053 302.24457642 226.30404053 302.24457642 226.29541016 300.70874023 C225.91377304 277.17760027 217.02783656 256.87847772 202 239 C201.3915625 238.19046875 200.783125 237.3809375 200.15625 236.546875 C186.35569765 220.24622259 163.70797881 210.78728848 143 208 C138.24282234 207.71786086 133.49658839 207.6992031 128.73193359 207.69702148 C127.33293171 207.68934231 125.93393438 207.68079259 124.53494263 207.67144775 C121.54652802 207.65330773 118.55817422 207.64118192 115.56971359 207.63390923 C110.84699588 207.62234707 106.12441333 207.59686434 101.40176392 207.56959534 C93.94119943 207.52811536 86.48062832 207.49561303 79.02000391 207.46712118 C65.62974981 207.41591718 52.2395512 207.35407027 38.84939444 207.28178078 C34.1505663 207.25683403 29.45175654 207.23741591 24.75288653 207.22239864 C21.84220249 207.21222947 18.93154735 207.19808589 16.02088547 207.18292236 C14.01851386 207.17378653 12.01612136 207.16966871 10.01373291 207.16566467 C8.83344513 207.15876617 7.65315735 207.15186768 6.43710327 207.14476013 C5.40515524 207.14090522 4.37320721 207.1370503 3.30998802 207.13307858 C1 207 1 207 0 206 C-0.09782251 203.34453427 -0.12994147 200.71509085 -0.12025452 198.05918884 C-0.12110894 197.21712263 -0.12196337 196.37505642 -0.12284368 195.50747305 C-0.12450107 192.66373371 -0.1189729 189.82005234 -0.11352539 186.97631836 C-0.11324355 184.94664003 -0.11340119 182.9169616 -0.1139679 180.88728333 C-0.11425599 175.35858439 -0.1083574 169.82990695 -0.10139394 164.30121303 C-0.09516232 158.53028264 -0.09455675 152.75935181 -0.09336853 146.98841858 C-0.09025465 136.0519964 -0.08204049 125.11558417 -0.07201904 114.17916638 C-0.06085967 101.73198109 -0.0553479 89.28479535 -0.05032361 76.83760631 C-0.03985792 51.22506535 -0.02225738 25.61253323 0 0 Z M363 91 C366.52508744 95.70011659 370.04905711 100.33539481 373.6875 104.9375 C380.35314103 113.48974053 386.28278654 122.64182642 391.75390625 132 C392.16511719 132.66 392.57632812 133.32 393 134 C393.33 134 393.66 134 394 134 C394 119.81 394 105.62 394 91 C383.77 91 373.54 91 363 91 Z " fill="#7EB17B" transform="translate(693,68)"/>
<path d="M0 0 C177.21 0 354.42 0 537 0 C537 63.36 537 126.72 537 192 C536 193 536 193 534.02913707 193.1241985 C533.15464115 193.12381878 532.28014523 193.12343906 531.37914944 193.12304783 C530.37394046 193.12503888 529.36873149 193.12702993 528.33306164 193.12908131 C527.21538137 193.12616847 526.0977011 193.12325563 524.94615173 193.12025452 C523.18077548 193.12153615 523.18077548 193.12153615 521.37973505 193.12284368 C518.09831915 193.12421186 514.81696215 193.12106442 511.53555334 193.11606562 C508.00247722 193.1117644 504.46940307 193.11320731 500.93632507 193.1139679 C494.81016034 193.11449334 488.68400622 193.11134441 482.55784416 193.10573006 C473.70034167 193.09761782 464.84284433 193.09500012 455.98533852 193.09374207 C441.61611795 193.09155111 427.24690304 193.08488985 412.87768555 193.07543945 C398.91577177 193.06626646 384.95385953 193.05919654 370.99194336 193.05493164 C370.12317049 193.05466364 369.25439761 193.05439565 368.35929829 193.05411953 C361.56535803 193.05204022 354.77141774 193.05008325 347.97747743 193.04816496 C314.65164642 193.03872395 281.32582958 193.01860739 248 193 C248 258.34 248 323.68 248 391 C166.16 391 84.32 391 0 391 C0 261.97 0 132.94 0 0 Z " fill="#C7C867" transform="translate(125,469)"/>
<path d="M0 0 C177.21 0 354.42 0 537 0 C537 67.98 537 135.96 537 206 C535.15934696 207.84065304 532.566508 207.12495846 530.11660963 207.13293558 C529.26119768 207.13059442 528.40578573 207.12825325 527.52445221 207.12584114 C526.62031804 207.12729458 525.71618387 207.12874802 524.7846517 207.13024551 C521.71502 207.13393315 518.64543711 207.13040639 515.57580566 207.12698364 C513.36888684 207.12813437 511.16196822 207.12972157 508.95504999 207.13171089 C502.85939282 207.13591084 496.76375117 207.13381053 490.66809392 207.13072467 C484.7792338 207.12870433 478.89037706 207.13135402 473.0015174 207.13387203 C460.20663617 207.13914896 447.41175991 207.13867694 434.6168782 207.13579312 C423.42014747 207.13328177 412.22341857 207.1326189 401.02668762 207.13381577 C399.91446513 207.13393034 399.91446513 207.13393034 398.77977349 207.13404724 C395.77017924 207.13435855 392.76058498 207.13467695 389.75099073 207.135007 C361.49420206 207.13806892 333.23741658 207.13528791 304.98062841 207.1299101 C279.85280656 207.12516418 254.72498977 207.12558879 229.59716797 207.13037109 C201.39346091 207.1357208 173.18975667 207.13785181 144.98604918 207.13475883 C141.98180358 207.13443809 138.97755798 207.13412525 135.97331238 207.13381577 C135.23354079 207.13373669 134.49376921 207.13365761 133.73158031 207.13357614 C122.53938061 207.13243663 111.34718294 207.13377272 100.15498352 207.13629532 C87.43437014 207.13914803 74.71376253 207.13845378 61.99314988 207.13301457 C55.49596067 207.13037631 48.99878178 207.12937459 42.50159264 207.13266373 C36.5641827 207.13562415 30.62679274 207.13403816 24.68938464 207.12868617 C22.53126854 207.12756089 20.37315079 207.12815559 18.21503574 207.13056196 C15.30184844 207.1335633 12.3887313 207.13052423 9.47554779 207.12584114 C8.19242987 207.12935289 8.19242987 207.12935289 6.88339037 207.13293558 C1.11415034 207.11415034 1.11415034 207.11415034 0 206 C0 138.02 0 70.04 0 0 Z " fill="#419E8C" transform="translate(125,68)"/>
<path d="M0 0 C1.79497169 -0.00786278 1.79497169 -0.00786278 3.62620544 -0.0158844 C6.14850083 -0.02229047 8.67082615 -0.02098602 11.19311523 -0.01245117 C15.04920552 -0.003927 18.90382094 -0.03274831 22.75976562 -0.06445312 C25.21484331 -0.06606494 27.66992361 -0.06548798 30.125 -0.0625 C31.85019615 -0.07935097 31.85019615 -0.07935097 33.61024475 -0.09654236 C39.89202542 -0.04188195 43.7161466 0.21990341 48.49609375 4.43359375 C49.06714844 4.90539062 49.63820313 5.3771875 50.2265625 5.86328125 C54.53524258 10.13730707 58.25142444 14.82828238 61.96020508 19.61914062 C65.67956486 24.42089343 69.49848736 29.12972867 73.37109375 33.80859375 C78.49187755 40.00063322 83.58855449 46.21061129 88.64501953 52.45532227 C91.47048486 55.94440303 94.30749712 59.42302978 97.1640625 62.88671875 C97.763396 63.61624756 98.36272949 64.34577637 98.98022461 65.09741211 C100.1325261 66.49951433 101.28814224 67.89890089 102.44750977 69.29516602 C102.96369873 69.92479248 103.4798877 70.55441895 104.01171875 71.203125 C104.46836914 71.75589111 104.92501953 72.30865723 105.39550781 72.87817383 C106.49609375 74.43359375 106.49609375 74.43359375 107.49609375 77.43359375 C113.16962599 80.19762228 119.59856485 79.99717371 125.73828125 79.109375 C126.31835938 78.88636719 126.8984375 78.66335938 127.49609375 78.43359375 C127.82609375 77.44359375 128.15609375 76.45359375 128.49609375 75.43359375 C129.15609375 75.43359375 129.81609375 75.43359375 130.49609375 75.43359375 C130.89828125 74.22703125 130.89828125 74.22703125 131.30859375 72.99609375 C131.70046875 72.15046875 132.09234375 71.30484375 132.49609375 70.43359375 C133.48609375 70.10359375 134.47609375 69.77359375 135.49609375 69.43359375 C136.71479304 66.92911859 136.71479304 66.92911859 137.49609375 64.43359375 C138.15609375 64.43359375 138.81609375 64.43359375 139.49609375 64.43359375 C139.76421875 63.67046875 140.03234375 62.90734375 140.30859375 62.12109375 C141.46530727 59.50326841 142.43104099 58.32655878 144.49609375 56.43359375 C145.15609375 55.44359375 145.81609375 54.45359375 146.49609375 53.43359375 C147.15609375 53.43359375 147.81609375 53.43359375 148.49609375 53.43359375 C149.15609375 51.78359375 149.81609375 50.13359375 150.49609375 48.43359375 C151.15609375 48.43359375 151.81609375 48.43359375 152.49609375 48.43359375 C152.76421875 47.67046875 153.03234375 46.90734375 153.30859375 46.12109375 C154.46530727 43.50326841 155.43104099 42.32655878 157.49609375 40.43359375 C158.15609375 39.44359375 158.81609375 38.45359375 159.49609375 37.43359375 C160.15609375 37.43359375 160.81609375 37.43359375 161.49609375 37.43359375 C162.15609375 35.78359375 162.81609375 34.13359375 163.49609375 32.43359375 C164.15609375 32.43359375 164.81609375 32.43359375 165.49609375 32.43359375 C165.89828125 31.28890625 165.89828125 31.28890625 166.30859375 30.12109375 C167.46530727 27.50326841 168.43104099 26.32655878 170.49609375 24.43359375 C171.48609375 22.94859375 171.48609375 22.94859375 172.49609375 21.43359375 C173.15609375 21.43359375 173.81609375 21.43359375 174.49609375 21.43359375 C175.48609375 18.95859375 175.48609375 18.95859375 176.49609375 16.43359375 C177.15609375 16.43359375 177.81609375 16.43359375 178.49609375 16.43359375 C178.76421875 15.67046875 179.03234375 14.90734375 179.30859375 14.12109375 C180.48757897 11.45286404 181.39926472 10.36912824 183.49609375 8.43359375 C184.07359375 7.60859375 184.65109375 6.78359375 185.24609375 5.93359375 C188.66633027 2.13333096 192.18810262 0.69062777 197.18621826 0.13400269 C200.42562155 -0.01255035 203.65180695 -0.06080536 206.89453125 -0.0703125 C208.67883041 -0.0852903 208.67883041 -0.0852903 210.49917603 -0.10057068 C213.00885553 -0.11571996 215.51859513 -0.12279746 218.02832031 -0.12231445 C221.85193131 -0.12887338 225.67294184 -0.18338911 229.49609375 -0.24023438 C231.94139742 -0.24903792 234.38671336 -0.25499115 236.83203125 -0.2578125 C238.53400162 -0.29014732 238.53400162 -0.29014732 240.27035522 -0.32313538 C246.79378415 -0.2672746 251.1607624 0.68519729 256.5819397 4.364151 C263.21894847 11.53959734 263.07164711 19.11317631 263.01367188 28.52539062 C263.01909979 29.94215105 263.0262262 31.35890583 263.03491211 32.77565002 C263.05306912 36.60424589 263.04610984 40.43240817 263.03339577 44.26101112 C263.02322833 48.2784703 263.0326718 52.29589377 263.03894043 56.31335449 C263.04620599 63.05841701 263.03665793 69.80330401 263.01757812 76.54833984 C262.99581138 84.33287291 263.00286353 92.11698684 263.02488375 99.90150976 C263.043069 106.59986618 263.04558085 113.29809683 263.03512907 119.99646997 C263.02891125 123.990672 263.02801107 127.98467739 263.04127502 131.97886658 C263.05287864 135.73506609 263.0447265 139.49072823 263.021698 143.24687004 C263.01393554 145.27297616 263.0257282 147.29912802 263.03820801 149.32521057 C262.96545089 157.19152182 262.46722028 163.41122688 256.6796875 169.2734375 C256.10347656 169.63566406 255.52726562 169.99789062 254.93359375 170.37109375 C254.06541016 170.94150391 254.06541016 170.94150391 253.1796875 171.5234375 C250.24301617 173.11101156 247.71764628 173.5693436 244.44287109 173.64233398 C243.63127533 173.6616246 242.81967957 173.68091522 241.98348999 173.70079041 C238.26231686 173.7588889 234.54133115 173.80784367 230.81982422 173.83862305 C228.86456589 173.86015388 226.90940265 173.89419817 224.95458984 173.94116211 C205.44275291 174.40525777 205.44275291 174.40525777 199.10400391 169.51196289 C194.18497334 163.15367148 192.92268243 157.61430518 193.02734375 149.67578125 C193.02029419 148.76909698 193.01324463 147.86241272 193.00598145 146.92825317 C192.98407765 144.05474089 192.98692227 141.18216434 192.99609375 138.30859375 C193.00816081 134.51382206 192.99440993 130.72043202 192.96484375 126.92578125 C192.97616333 126.06314667 192.98748291 125.20051208 192.99914551 124.31173706 C192.95355029 118.85602702 192.1126096 115.77290908 188.49609375 111.43359375 C184.67519575 108.06221316 180.97494724 108.0535348 176.09375 107.9375 C169.53290495 109.19047341 165.58138567 114.28177885 161.55859375 119.18359375 C160.5066511 120.43631607 159.45456854 121.68892091 158.40234375 122.94140625 C157.65210938 123.84294434 157.65210938 123.84294434 156.88671875 124.76269531 C146.28175026 137.50504158 146.28175026 137.50504158 140.49609375 139.43359375 C139.04528393 139.539189 137.59027138 139.59203965 136.13574219 139.6105957 C135.25762878 139.62343094 134.37951538 139.63626617 133.47479248 139.64949036 C132.52791565 139.65687729 131.58103882 139.66426422 130.60546875 139.671875 C129.62749329 139.67994675 128.64951782 139.68801849 127.64190674 139.69633484 C125.5706967 139.7101678 123.49946395 139.72089348 121.42822266 139.72875977 C118.2720172 139.74595254 115.11686479 139.78984381 111.9609375 139.83398438 C109.94662227 139.84411346 107.93229815 139.85262889 105.91796875 139.859375 C104.97918884 139.87688309 104.04040894 139.89439117 103.07318115 139.91242981 C95.81028204 139.88857489 91.55338951 138.30172573 86.16015625 133.2421875 C85.48726562 132.45972656 84.814375 131.67726563 84.12109375 130.87109375 C82.98800781 129.56398438 82.98800781 129.56398438 81.83203125 128.23046875 C78.72607118 124.51162693 75.65809506 120.76447317 72.63671875 116.9765625 C67.66752253 110.78920565 67.66752253 110.78920565 60.48046875 108.1953125 C54.89048254 108.00963114 50.72275925 108.57500451 46.49609375 112.43359375 C43.6787894 118.43183175 43.07669039 123.40894821 43.125 129.97265625 C43.10762952 131.78776242 43.09004503 133.60286654 43.07226562 135.41796875 C43.06217794 138.24645608 43.0586035 141.07481568 43.06030273 143.90332031 C43.05672723 146.65597823 43.029382 149.40767077 43 152.16015625 C43.00818253 153.00091705 43.01636505 153.84167786 43.02479553 154.70791626 C42.94642922 160.91265678 41.30886055 164.53830079 36.8984375 169.078125 C33.02604407 172.16571336 30.31690228 173.54814141 25.39526367 173.59472656 C24.57398483 173.60433411 23.75270599 173.61394165 22.90653992 173.62384033 C21.5799511 173.63021515 21.5799511 173.63021515 20.2265625 173.63671875 C19.3128035 173.64241882 18.39904449 173.6481189 17.45759583 173.6539917 C15.52341875 173.66343793 13.5892256 173.66997418 11.6550293 173.67382812 C8.70527839 173.68352248 5.75622768 173.71454473 2.80664062 173.74609375 C0.92578538 173.75262523 -0.95507484 173.75787513 -2.8359375 173.76171875 C-3.71425735 173.77406555 -4.59257721 173.78641235 -5.49751282 173.7991333 C-11.45812766 173.7776001 -15.85795779 172.92422448 -20.3671875 168.6796875 C-21.08455078 167.78443359 -21.08455078 167.78443359 -21.81640625 166.87109375 C-22.30753906 166.27167969 -22.79867188 165.67226563 -23.3046875 165.0546875 C-25.70794158 161.80598899 -25.63547645 159.54182886 -25.65107727 155.53887939 C-25.65823257 154.28267792 -25.66538788 153.02647644 -25.67276001 151.73220825 C-25.67560042 150.3322146 -25.67831213 148.93222069 -25.6809082 147.53222656 C-25.68717189 146.0638513 -25.6938186 144.59547764 -25.70082092 143.12710571 C-25.7182405 139.13108648 -25.7287855 135.13507922 -25.73702645 131.13903141 C-25.74217508 128.64274195 -25.7482509 126.14645621 -25.75453758 123.65016937 C-25.7735932 115.84081936 -25.78782298 108.03147883 -25.79614955 100.22211003 C-25.80592133 91.20591849 -25.83223762 82.18997249 -25.87265044 73.17386746 C-25.90280898 66.20648529 -25.91761821 59.23917351 -25.92093056 52.27172732 C-25.92328155 48.10978481 -25.93224791 43.94810451 -25.95739174 39.78623199 C-25.98067278 35.86931667 -25.98490578 31.95283618 -25.97463036 28.0358696 C-25.97413487 26.59997232 -25.98045919 25.16405364 -25.9941864 23.72822189 C-26.0119083 21.7643086 -26.0024129 19.80020646 -25.99165344 17.83624268 C-25.9940418 16.73821949 -25.99643015 15.6401963 -25.99889088 14.50889969 C-25.38013975 10.6646409 -23.92924404 8.44406363 -21.50390625 5.43359375 C-20.84390625 5.43359375 -20.18390625 5.43359375 -19.50390625 5.43359375 C-19.50390625 4.77359375 -19.50390625 4.11359375 -19.50390625 3.43359375 C-13.06748327 -0.05369317 -7.22069991 -0.01846289 0 0 Z " fill="#57A289" transform="translate(518.50390625,686.56640625)"/>
<path d="M0 0 C0.7333693 -0.00367669 1.46673861 -0.00735338 2.22233123 -0.01114148 C4.68653251 -0.0221789 7.15069163 -0.02602223 9.61491394 -0.02983093 C11.37899917 -0.03609547 13.14308307 -0.04274226 14.90716553 -0.04974365 C19.70475381 -0.06715254 24.50233213 -0.07770484 29.29994416 -0.08594918 C32.29659018 -0.09109896 35.2932331 -0.09717466 38.28987694 -0.10346031 C47.66365645 -0.12251101 57.03742808 -0.13674312 66.41122323 -0.14507228 C77.2357124 -0.15484907 88.05999732 -0.18118065 98.88441449 -0.22157317 C107.24883252 -0.25171625 115.61319193 -0.26653938 123.97766322 -0.26985329 C128.97458911 -0.27220558 133.97129676 -0.2811894 138.96816444 -0.30631447 C143.66891267 -0.32956897 148.36929854 -0.333839 153.07008934 -0.32355309 C154.79463276 -0.323057 156.51919387 -0.32939892 158.24368286 -0.34310913 C160.59998319 -0.36079323 162.95497814 -0.35374014 165.3112793 -0.34057617 C166.62923398 -0.34296453 167.94718866 -0.34535288 169.30508137 -0.34781361 C174.50278983 0.37874987 178.315945 3.02939222 181.59611511 7.08467102 C185.33494183 12.1736296 186.39341725 15.79846619 185.84611511 22.14717102 C183.8321057 28.90002612 179.98108544 32.89254259 173.89859009 36.20907593 C169.31589479 37.61744258 164.86054758 37.43034668 160.092453 37.41841125 C159.00896072 37.423638 157.92546844 37.42886475 156.80914307 37.43424988 C154.45908111 37.44448262 152.10899654 37.45026902 149.75891304 37.45213127 C146.03921037 37.45579388 142.31977454 37.4725176 138.60012817 37.4928894 C129.36200124 37.54130928 120.12383134 37.57294867 110.88560486 37.5941925 C103.07865333 37.61217136 95.27190879 37.64156571 87.46507072 37.68823433 C84.99993848 37.69988631 82.53477229 37.7058147 80.0696125 37.70591545 C76.62259716 37.70610744 73.17610576 37.72436948 69.72917175 37.74653625 C68.71131592 37.74195908 67.69346008 37.7373819 66.64476013 37.73266602 C61.31115239 37.78721056 57.41991064 38.07835701 52.84611511 41.14717102 C49.26073179 46.04719489 49.00784349 51.28879549 49.84611511 57.14717102 C51.96833493 61.81605462 54.14264438 63.63858809 58.86108208 65.54480171 C62.25659205 66.57518809 65.65327535 66.55262194 69.16471863 66.5160675 C70.36611481 66.52171722 70.36611481 66.52171722 71.59178162 66.52748108 C73.31920772 66.53388405 75.04666911 66.53361139 76.77409554 66.52729607 C79.51114417 66.51814398 82.2475139 66.52845537 84.98452759 66.54391479 C92.76186652 66.5839077 100.53914939 66.58521478 108.3165741 66.58296204 C113.08397757 66.5829109 117.85101235 66.60209296 122.61831474 66.63229561 C125.30952812 66.64310217 128.00003274 66.63100402 130.69122314 66.61846924 C132.34645789 66.62737492 134.00168689 66.63744974 135.65690613 66.64888 C136.40044846 66.63913651 137.14399078 66.62939301 137.9100647 66.61935425 C143.81075375 66.70049182 147.359085 68.67786321 151.49064636 72.77998352 C156.46233143 79.13176846 156.81242591 84.12585321 155.84611511 92.14717102 C153.40631604 97.90005517 149.52402884 100.61513107 144.07349014 103.28266716 C140.5080854 104.66649616 137.20080096 104.69546297 133.41398621 104.64546204 C132.61290939 104.65098083 131.81183258 104.65649963 130.98648071 104.66218567 C129.26181351 104.67145191 127.53707787 104.67165566 125.81240463 104.66359138 C123.07936952 104.65089053 120.34733379 104.66231431 117.61433411 104.67962646 C112.79978977 104.706249 107.98549316 104.71192491 103.17088318 104.71052551 C95.45877273 104.70829146 87.74696782 104.72246857 80.03497696 104.76611137 C77.34827215 104.77592668 74.66205166 104.76724655 71.97535706 104.75741577 C70.32338649 104.76356113 68.67141853 104.77047325 67.01945496 104.77827454 C66.27748367 104.77055527 65.53551239 104.762836 64.77105713 104.75488281 C60.06120432 104.80067281 56.8438337 105.65410281 52.84611511 108.14717102 C49.08210423 112.91491813 49.48879132 118.20848708 49.44767761 124.02607727 C49.90697726 127.62392452 50.5154184 129.36460453 52.84611511 132.14717102 C58.83967616 135.45474599 64.07344262 135.57293769 70.826828 135.53193665 C71.91061234 135.53730942 72.99439667 135.54268219 74.11102295 135.54821777 C76.45558964 135.55797436 78.80019234 135.56094636 81.1447773 135.55786133 C84.8563061 135.55337566 88.56736009 135.56740464 92.27883911 135.58625793 C100.82470357 135.62611904 109.37055679 135.63864993 117.91649628 135.6497879 C126.37943544 135.66114591 134.84219063 135.68416221 143.30503654 135.72717285 C146.96002167 135.74074923 150.61471388 135.73657148 154.26971436 135.73176575 C156.5114123 135.74110574 158.75310699 135.7512744 160.99479675 135.7624054 C162.0095105 135.75625717 163.02422424 135.75010895 164.06968689 135.74377441 C170.30805024 135.79818195 174.82088774 136.4774725 179.67424011 140.76045227 C184.09665254 146.04547811 186.13111204 150.11414685 185.72111511 157.14717102 C185.1238583 161.71927488 183.94874862 164.62526271 180.84611511 168.14717102 C175.30275077 172.33297675 171.60271858 173.27191278 164.73692322 173.29434204 C164.00834303 173.29801873 163.27976285 173.30169542 162.52910447 173.30548352 C160.08105665 173.31652064 157.63305128 173.32036424 155.1849823 173.32417297 C153.43237167 173.33043759 151.67976238 173.33708439 149.92715454 173.34408569 C144.16577581 173.36512814 138.40439681 173.37548802 132.64299011 173.38545227 C130.65981787 173.38949971 128.67664577 173.39361663 126.69347382 173.39780235 C117.37682341 173.41685416 108.06018092 173.4310854 98.74351478 173.43941432 C87.98808559 173.44918815 77.23286213 173.47551154 66.47750545 173.51591522 C58.16487603 173.54607123 49.8523056 173.5608827 41.53962255 173.56419533 C36.57452219 173.56654635 31.60964161 173.57551363 26.64459991 173.60065651 C21.97257511 173.62393329 17.30091487 173.62817205 12.62884712 173.61789513 C10.91601156 173.61739956 9.20315807 173.62372604 7.49037743 173.63745117 C5.14756327 173.6551715 2.8060573 173.64806436 0.46324158 173.63491821 C-0.84641697 173.63730657 -2.15607552 173.63969492 -3.50542068 173.64215565 C-8.93153248 172.90599879 -13.60494378 170.51218107 -17.02888489 166.08467102 C-20.01373789 161.9585507 -20.28138887 159.18304808 -20.30105591 154.21485901 C-20.30821121 152.97555634 -20.31536652 151.73625366 -20.32273865 150.45939636 C-20.32557888 149.0835116 -20.32829061 147.70762657 -20.33088684 146.33174133 C-20.3371525 144.88454526 -20.34379939 143.43735079 -20.35079956 141.99015808 C-20.37183067 137.23521544 -20.38220123 132.48027251 -20.39216614 127.72529602 C-20.39621409 126.08758782 -20.40033102 124.44987979 -20.40451622 122.81217194 C-20.42356601 115.11761957 -20.43779734 107.42307679 -20.44612819 99.72850537 C-20.45589944 90.85043338 -20.48221677 81.97261079 -20.52262908 73.09462667 C-20.552803 66.22996792 -20.56759828 59.36538061 -20.5709092 52.50065684 C-20.5732583 48.40185273 -20.58220019 44.30331511 -20.60737038 40.20458221 C-20.63067856 36.34674449 -20.63487353 32.48934821 -20.62460899 28.63145828 C-20.62411418 27.21855576 -20.63041868 25.8056313 -20.64416504 24.39279556 C-20.7669535 11.0203678 -20.7669535 11.0203678 -16.15388489 5.14717102 C-10.66155889 0.88781617 -6.85015673 0.02223078 0 0 Z " fill="#56A088" transform="translate(842.1538848876953,686.8528289794922)"/>
<path d="M0 0 C16.93037407 -0.04010881 16.93037407 -0.04010881 24.12304688 -0.04882812 C29.03931756 -0.05481601 33.95556969 -0.06191484 38.87182617 -0.07543945 C42.83346828 -0.08627025 46.79509052 -0.09227724 50.75674629 -0.09487724 C52.27148311 -0.09673114 53.78621879 -0.1003511 55.30094719 -0.10573006 C57.41541813 -0.11294307 59.52980594 -0.11399083 61.64428711 -0.11352539 C62.85007919 -0.115746 64.05587128 -0.11796661 65.29820251 -0.12025452 C68 0 68 0 69 1 C69.10099488 3.72724279 69.13970529 6.42862523 69.1328125 9.15625 C69.13376923 9.97371704 69.13472595 10.79118408 69.13571167 11.63342285 C69.13639345 13.36515378 69.13453929 15.09688724 69.13037109 16.82861328 C69.12502279 19.48866482 69.13031612 22.1485475 69.13671875 24.80859375 C69.13605797 26.48697954 69.1347768 28.16536523 69.1328125 29.84375 C69.13483673 30.64478149 69.13686096 31.44581299 69.13894653 32.27111816 C69.11495079 37.88504921 69.11495079 37.88504921 68 39 C65.88318683 39.0942174 63.76319242 39.11742761 61.64428711 39.11352539 C60.98089828 39.11367142 60.31750946 39.11381744 59.63401794 39.1139679 C57.43176044 39.11326881 55.22958655 39.10547665 53.02734375 39.09765625 C51.50419664 39.09579206 49.98104893 39.09436816 48.457901 39.09336853 C44.44162349 39.08954346 40.42538192 39.07971328 36.40911865 39.06866455 C31.59420261 39.0566555 26.77927456 39.05204814 21.96434784 39.04621124 C14.64287353 39.03650151 7.32147815 39.01734491 0 39 C0 26.13 0 13.26 0 0 Z " fill="#539A83" transform="translate(394,821)"/>
</svg>
