<?xml version="1.0" encoding="UTF-8"?>
<svg version="1.1" xmlns="http://www.w3.org/2000/svg" width="42" height="57">
<path d="M0 0 C4.36899478 1.63925247 7.23393017 4.23393017 10.5 7.5 C12.81114954 12.89268225 12.30893492 18.21605181 12 24 C9.03 24 6.06 24 3 24 C2.96261719 23.31292969 2.92523437 22.62585938 2.88671875 21.91796875 C2.82097656 21.01691406 2.75523438 20.11585937 2.6875 19.1875 C2.62949219 18.29417969 2.57148438 17.40085937 2.51171875 16.48046875 C1.92446872 13.63387509 1.31846532 12.70634714 -1 11 C-4.42243314 9.99917465 -4.42243314 9.99917465 -8 10 C-9.32 10.99 -10.64 11.98 -12 13 C-12.33 16.96 -12.66 20.92 -13 25 C-3.76 25 5.48 25 15 25 C15.061875 28.155625 15.12375 31.31125 15.1875 34.5625 C15.22846802 36.0331189 15.22846802 36.0331189 15.27026367 37.53344727 C15.33891316 44.81398382 14.36210609 49.23370307 9.51171875 54.9140625 C5.14239956 58.21028661 0.0393825 57.57327285 -5.1875 57.375 C-6.18458984 57.36082031 -7.18167969 57.34664062 -8.20898438 57.33203125 C-17.73515751 57.13932377 -17.73515751 57.13932377 -20.53515625 54.6171875 C-21.29119141 53.75480469 -21.29119141 53.75480469 -22.0625 52.875 C-22.56910156 52.31554688 -23.07570313 51.75609375 -23.59765625 51.1796875 C-27.13018832 45.68901091 -27.27473254 39.8570258 -27.125 33.5625 C-27.11146484 32.46518555 -27.11146484 32.46518555 -27.09765625 31.34570312 C-27.07436153 29.56365702 -27.0385019 27.78178241 -27 26 C-26.01 25.67 -25.02 25.34 -24 25 C-24.06960937 23.948125 -24.06960937 23.948125 -24.140625 22.875 C-24.39047023 16.30763965 -23.95380044 11.39502447 -20 6 C-13.58818948 0.05734634 -8.59091125 -1.05617033 0 0 Z " fill="#4274B4" transform="translate(27,0)"/>
<path d="M0 0 C7.59 0 15.18 0 23 0 C22 5 22 5 19.5625 7.3125 C14.89962568 9.52122994 11.07668304 9.8376527 6 9 C2.9375 7.3125 2.9375 7.3125 1 5 C0.67 3.35 0.34 1.7 0 0 Z " fill="#F0F4F9" transform="translate(10,40)"/>
<path d="M0 0 C0.33 0 0.66 0 1 0 C1 4.62 1 9.24 1 14 C0.01 14 -0.98 14 -2 14 C-1.88545196 16.87575868 -1.7587153 19.75012112 -1.625 22.625 C-1.5940625 23.43324219 -1.563125 24.24148437 -1.53125 25.07421875 C-1.3047054 29.71838314 -0.7407332 33.62693856 1 38 C-2.96708668 35.35527554 -3.03107158 33.60933092 -4 29 C-4.20897024 26.17890181 -4.19223971 23.38915384 -4.125 20.5625 C-4.11146484 19.46518555 -4.11146484 19.46518555 -4.09765625 18.34570312 C-4.07436153 16.56365702 -4.0385019 14.78178241 -4 13 C-3.01 12.67 -2.02 12.34 -1 12 C-1.01160156 11.21753906 -1.02320313 10.43507813 -1.03515625 9.62890625 C-1.04417969 8.61699219 -1.05320313 7.60507812 -1.0625 6.5625 C-1.07410156 5.55316406 -1.08570313 4.54382813 -1.09765625 3.50390625 C-1 1 -1 1 0 0 Z " fill="#294973" transform="translate(4,13)"/>
<path d="M0 0 C9.57 0.33 19.14 0.66 29 1 C29 1.66 29 2.32 29 3 C19.1 3 9.2 3 -1 3 C-0.67 2.01 -0.34 1.02 0 0 Z " fill="#25395E" transform="translate(13,24)"/>
<path d="M0 0 C1.65 0.33 3.3 0.66 5 1 C4.67 2.65 4.34 4.3 4 6 C2.35 5.67 0.7 5.34 -1 5 C-0.67 3.35 -0.34 1.7 0 0 Z " fill="#F1F4FA" transform="translate(28,30)"/>
<path d="M0 0 C1.65 0.33 3.3 0.66 5 1 C4.67 2.65 4.34 4.3 4 6 C2.35 5.67 0.7 5.34 -1 5 C-0.67 3.35 -0.34 1.7 0 0 Z " fill="#F1F4FA" transform="translate(11,30)"/>
</svg>
